<svg xmlns="http://www.w3.org/2000/svg" viewBox="0 0 500 500"><g id="freepik--Character_1--inject-110"><g><path d="M124.15,187.06s2.28-1.8,6.39,3.36c4.11,5.16,23.56,27.48,22.87,28.65s-17.96,16.19-18.67,14.64c-.71-1.55-10.59-12.85-10.59-12.85v-33.8Z" style="fill:#455a64;"></path><path d="M50.77,195.83c-.11,.84-29.49,25.84-30.13,29.89-.63,4.05,4.05,6.2,6.67,8.47s29.9-24.16,29.9-24.16l-6.44-14.21Z" style="fill:#ffbf9d;"></path><path d="M57.2,183.57s-9.34,5.42-29.45,24.98c-2.68,2.61,20.07,17.17,22.38,15.02,2.3-2.15,5.92-8.73,5.92-9.23s1.15-30.77,1.15-30.77Z" style="fill:#455a64;"></path><g><g><path d="M112.18,138.84c-.39-10.01-8.41-18.04-18.42-18.46l-.99-.04c-10.75,.18-16.61,9.42-16.13,20.17l2.92,43.04,15.44,6.72,6.57-6.04c0-3.03,.04-9.3,.06-9.3,0,0,10.38-1.18,10.93-11.48,.27-4.98-.02-15.28-.38-24.59Z" style="fill:#ffbf9d;"></path><path d="M101.63,174.91s-6.52,.11-13.26-4.52c0,0,2.91,7.89,13.24,7.38l.02-2.86Z" style="fill:#ff9a6c;"></path><path d="M107.61,149.14c0,.78-.67,1.42-1.48,1.43-.81,0-1.47-.61-1.46-1.39,0-.78,.67-1.42,1.48-1.43,.81,0,1.47,.61,1.46,1.39Z" style="fill:#263238;"></path><path d="M109.8,143.3c-.19,.18-1.27-.69-2.86-.75-1.58-.08-2.78,.68-2.94,.48-.08-.09,.12-.43,.64-.78,.51-.35,1.38-.67,2.37-.62,.99,.05,1.8,.44,2.26,.84,.47,.39,.62,.75,.53,.83Z" style="fill:#263238;"></path><path d="M94.27,148.48c0,.78-.67,1.42-1.48,1.43-.81,.01-1.47-.61-1.46-1.39,0-.78,.67-1.42,1.48-1.43,.81-.01,1.47,.61,1.46,1.39Z" style="fill:#263238;"></path><path d="M94.25,143.03c-.19,.18-1.27-.69-2.86-.75-1.58-.08-2.78,.68-2.94,.48-.08-.09,.12-.43,.64-.78,.51-.35,1.38-.67,2.37-.62,.99,.05,1.8,.44,2.26,.84,.47,.39,.62,.75,.53,.83Z" style="fill:#263238;"></path><path d="M99.43,155.44c0-.09,.99-.22,2.59-.36,.41-.02,.79-.09,.87-.36,.11-.29-.04-.73-.22-1.21-.34-1-.7-2.04-1.07-3.13-1.48-4.46-2.53-8.11-2.35-8.17,.18-.06,1.53,3.51,3.01,7.96,.36,1.1,.7,2.15,1.02,3.15,.13,.47,.38,1,.14,1.6-.12,.3-.43,.5-.69,.56-.26,.07-.49,.06-.69,.07-1.61,.02-2.61-.01-2.61-.1Z" style="fill:#263238;"></path><path d="M94.97,138.09c-.23,.4-1.75-.09-3.62-.21-1.87-.16-3.44,.11-3.62-.32-.07-.2,.26-.55,.93-.85,.67-.3,1.68-.52,2.8-.44,1.12,.08,2.09,.44,2.71,.84,.62,.39,.9,.79,.79,.98Z" style="fill:#263238;"></path><path d="M110.06,138.64c-.34,.35-1.62-.06-3.17-.11-1.55-.1-2.87,.17-3.17-.22-.13-.19,.09-.54,.67-.87,.57-.32,1.53-.58,2.6-.52,1.07,.06,1.98,.41,2.51,.79,.54,.38,.71,.76,.56,.93Z" style="fill:#263238;"></path><path d="M77.16,148.18c-.17-.08-7-2.39-7.07,4.67-.07,7.06,8.11,5.91,8.12,5.71s-1.06-10.38-1.06-10.38Z" style="fill:#ffbf9d;"></path><path d="M75.01,155.62s-.12,.08-.33,.18c-.2,.09-.55,.15-.92,.01-.74-.28-1.36-1.47-1.38-2.74-.01-.64,.13-1.25,.36-1.76,.22-.51,.56-.87,.93-.94,.37-.08,.64,.14,.72,.34,.09,.2,.05,.34,.08,.35,.02,.02,.15-.12,.1-.41-.03-.14-.11-.31-.27-.44-.17-.14-.42-.21-.68-.19-.54,.03-1.04,.53-1.3,1.08-.29,.56-.46,1.24-.44,1.96,.03,1.42,.75,2.76,1.77,3.07,.5,.13,.91-.01,1.13-.18,.22-.17,.26-.33,.23-.34Z" style="fill:#ff9a6c;"></path><path d="M94.45,156.42c.24-.02,.25,1.61,1.65,2.75,1.39,1.15,3.12,.96,3.13,1.18,.02,.1-.38,.32-1.11,.34-.72,.03-1.76-.2-2.61-.9-.85-.7-1.22-1.64-1.28-2.31-.06-.68,.11-1.08,.22-1.07Z" style="fill:#263238;"></path></g><g><path d="M126.43,129.55c-.11-.42-.41-.76-.77-.99-.8-.49-1.74-.43-2.64-.46-2.24-.06-4.46-.66-6.44-1.7,.7-.34,1.36-.77,1.91-1.31,1.15-1.13,1.83-2.86,1.32-4.39-.09-.29-.26-.59-.55-.68-.46-.15-.86,.3-1.19,.65-1.06,1.16-2.04,1.66-3.61,1.48-.97-.11-1.91-.34-2.67-.82-.03-.03-.06-.07-.09-.1-.36-.38-.72-.75-1.07-1.1h0c-2.63-2.67-4.89-4.52-7.23-5.49-3.43-1.43-9.19-2.05-12.79-1.15-3.6,.9-6.86,3.78-7.41,7.46-2-1.73-5.02-1.75-7.49-.79l-.06-.03c-2.74,.94-4.33,3.81-5.17,6.59-.05,.15-.09,.31-.13,.46-.94,1.45-2.21,2.7-3.72,3.55-.27,.15-.57,.34-.61,.64-.04,.3,.22,.55,.46,.73,.65,.48,1.41,.79,2.2,.94-.26,.66-.56,1.3-.93,1.91-.31,.52-.69,1.14-.43,1.69,.2,.42,.74,.6,1.2,.54,.47-.06,.88-.32,1.28-.56-.31,.73-.63,1.45-.94,2.18,.99,.18,2.01,.12,2.98-.16,.55,2.61,.93,7.45,1.58,9.22,1.87,.05,2.33-.14,3.27,.18,1.22,.42,.73,2.58,2.32,1.98,.81-.3,2.09-3.36,2.37-4.18,1.86-5.45,2.52-11.31,1.94-17.04,1.15-1.19,2.52-2.16,4.03-2.84l-.12,.11c2.9-.97,6.17-1.92,8.9-.53,2.11,1.08,3.34,3.29,4.9,5.07,2.97,3.37,6.36,5.19,10.84,5.43,.37,3.12,.43,8.22,.55,11.13l2.55-5.79v.02c.21-.34,.38-.68,.54-1.02l.06-.1h0c.26-.56,.51-1.11,.84-1.66l.03,.03c1.56,1.41,3.91-.69,2.68-2.4-.24-.34-.53-.64-.87-.89,.71,.68,1.78,1.02,2.73,.74,.95-.28,1.69-1.23,1.62-2.21-.05-.67-.52-1.28-1.13-1.55,1.27,.11,2.58-.15,3.69-.77,.73-.41,1.45-1.08,1.22-2Z" style="fill:#263238;"></path><path d="M86.45,122.17s-.44,.27-1.05,.94c-.61,.66-1.29,1.83-1.62,3.41-.17,.79-.28,1.67-.29,2.62-.01,.95,.05,1.97,.11,3.05,.06,1.07,.12,2.21,.04,3.39-.04,.59-.12,1.19-.25,1.78-.14,.59-.3,1.22-.75,1.73-.36,.41-.95,.58-1.46,.47-.52-.1-.97-.38-1.3-.76-.66-.78-.81-1.77-.97-2.64l.22,.03c-.36,.78-.74,1.54-1.28,2.15-.54,.61-1.28,1.01-2.02,1.07-.37,.03-.75-.03-1.06-.2-.32-.16-.56-.43-.72-.72-.15-.29-.23-.61-.21-.92,.02-.31,.14-.6,.34-.8l.11,.1c-.81,.9-1.65,1.38-2.24,1.64-.3,.13-.53,.21-.69,.26-.16,.05-.25,.06-.25,.06,0,0,.08-.04,.23-.1,.15-.06,.38-.15,.67-.29,.57-.28,1.39-.77,2.16-1.67l.11,.1c-.35,.36-.38,1.01-.09,1.53,.15,.26,.36,.5,.65,.64,.28,.14,.62,.2,.96,.17,.69-.06,1.37-.44,1.88-1.02,.51-.58,.88-1.33,1.23-2.1l.15-.33,.06,.36c.16,.87,.32,1.81,.92,2.52,.3,.34,.72,.59,1.17,.68,.45,.09,.93-.05,1.24-.4,.39-.43,.56-1.04,.69-1.61,.13-.58,.21-1.17,.25-1.75,.08-1.16,.03-2.29-.03-3.36-.05-1.07-.11-2.1-.09-3.06,.02-.96,.14-1.86,.33-2.66,.36-1.61,1.08-2.78,1.72-3.44,.64-.66,1.12-.87,1.12-.87Z" style="fill:#455a64;"></path><path d="M118.3,132.58s-.03,.03-.08,.07c-.07,.05-.16,.11-.26,.19-.11,.08-.26,.18-.44,.28-.18,.1-.38,.22-.63,.32-.96,.45-2.51,.88-4.43,.75-1.9-.13-4.18-.83-6.21-2.37-2.05-1.51-3.83-3.71-5.29-6.24-.74-1.26-1.33-2.55-2-3.74-.66-1.19-1.39-2.3-2.27-3.17-.88-.88-1.9-1.53-2.96-1.84-.53-.16-1.06-.2-1.57-.2-.51,.02-.99,.12-1.44,.26-.89,.29-1.62,.77-2.17,1.27-.55,.5-.93,1.04-1.18,1.5-.48,.94-.51,1.55-.55,1.54,0,0,0-.04,0-.11,.01-.09,.03-.19,.05-.32,.05-.28,.18-.68,.41-1.16,.25-.47,.62-1.03,1.17-1.55,.55-.52,1.29-1.03,2.21-1.34,.46-.15,.96-.26,1.49-.28,.53-.01,1.09,.03,1.63,.19,1.1,.31,2.16,.98,3.06,1.88,.91,.89,1.66,2.01,2.32,3.22,.67,1.2,1.27,2.49,2,3.73,1.44,2.5,3.2,4.68,5.21,6.18,1.99,1.53,4.21,2.23,6.09,2.38,1.89,.15,3.42-.25,4.38-.66,.97-.42,1.44-.8,1.45-.77Z" style="fill:#455a64;"></path><path d="M119.29,128.06s-.12,.1-.37,.25c-.25,.15-.62,.34-1.1,.54-.48,.2-1.07,.39-1.74,.55-.67,.14-1.43,.25-2.22,.27-.8,.01-1.55-.06-2.23-.18-.68-.13-1.28-.29-1.76-.48-.49-.18-.87-.35-1.12-.5-.26-.14-.39-.22-.38-.24,.02-.04,.59,.26,1.56,.57,.49,.16,1.08,.31,1.75,.42,.67,.1,1.41,.17,2.19,.16,.78-.02,1.52-.12,2.18-.25,.66-.14,1.25-.31,1.73-.49,.96-.36,1.52-.68,1.54-.64Z" style="fill:#455a64;"></path></g></g><g><path d="M109.74,432.7l-1.1,20.07s20.03,7.86,20.19,11.59l-38.99-.73,.43-31.34,19.47,.42Z" style="fill:#455a64;"></path><path d="M96.62,450.85c-.76,.19-1.3,1.03-1.13,1.8,.16,.77,1.01,1.32,1.77,1.14,.76-.18,1.44-1.17,1.19-1.91-.25-.74-1.28-1.34-1.97-.98" style="fill:#e0e0e0;"></path><path d="M89.84,463.61l.17-3.16,37.32,1.89s1.72,.79,1.5,2.01l-38.99-.73Z" style="fill:#263238;"></path><path d="M109.28,452.58c-.01,.19-.96,.26-1.91,.85-.96,.57-1.46,1.39-1.64,1.31-.17-.04,.13-1.17,1.29-1.87,1.15-.71,2.3-.46,2.26-.29Z" style="fill:#fff;"></path><path d="M113.34,454.35c.04,.19-.79,.49-1.45,1.29-.68,.77-.86,1.64-1.05,1.63-.18,.03-.29-1.09,.55-2.06,.83-.98,1.95-1.04,1.95-.85Z" style="fill:#fff;"></path><path d="M115.57,459.28c-.17,.04-.42-.92,.09-1.95,.5-1.04,1.41-1.43,1.48-1.27,.1,.16-.48,.71-.89,1.56-.42,.85-.49,1.65-.68,1.66Z" style="fill:#fff;"></path><path d="M109.02,447.98c-.08,.17-.95-.11-2.03-.05-1.08,.03-1.92,.38-2.02,.21-.11-.14,.72-.83,1.99-.87,1.27-.05,2.15,.57,2.05,.72Z" style="fill:#fff;"></path></g><g><path d="M69,429.05l-2.11,24.22,3.85,19.64c.28,1.42-.7,2.77-2.13,2.95h0c-.8,.1-1.6-.19-2.14-.78-3.48-3.79-16.19-17.79-15.94-19.56,.29-2.04,.53-25.7,.53-25.7l17.94-.78Z" style="fill:#455a64;"></path><path d="M68.61,475.87l-17.97-21.97-.07,1.03c-.06,.89,.2,1.77,.73,2.48,1.42,1.91,5.47,7.1,15.09,17.68,.56,.62,1.39,.91,2.22,.79h0Z" style="fill:#263238;"></path><g style="opacity:.6;"><path d="M56.12,446.38c.58,.46,.72,1.39,.29,1.99-.44,.6-1.38,.75-1.97,.3-.59-.45-.79-1.56-.29-2.11,.5-.55,1.62-.66,2.08-.09" style="fill:#fff;"></path></g><path d="M63.74,464.91c.13,.08,.76-1.16,2.25-1.75,1.47-.64,2.79-.21,2.83-.36,.02-.06-.27-.27-.83-.38-.56-.12-1.38-.09-2.2,.24-.81,.34-1.42,.91-1.73,1.38-.31,.48-.38,.84-.32,.86Z" style="fill:#fff;"></path><path d="M65.26,468.27c.11,.11,.94-.63,2.22-.91,1.27-.31,2.34,0,2.39-.15,.08-.12-1.06-.71-2.51-.37-1.46,.33-2.22,1.35-2.1,1.43Z" style="fill:#fff;"></path><path d="M60.79,460.54c.11,.12,1.38-1.02,3.33-1.63,1.94-.64,3.64-.45,3.65-.61,.05-.13-1.73-.58-3.82,.1-2.09,.66-3.28,2.06-3.16,2.14Z" style="fill:#fff;"></path><path d="M60.82,453.12c.06,.15,1.43-.32,3.18-.28,1.75,.02,3.1,.56,3.17,.41,.07-.11-1.27-.91-3.15-.94-1.88-.05-3.26,.69-3.19,.81Z" style="fill:#fff;"></path><path d="M61.26,445.99c.07,.15,1.47-.58,3.3-.37,1.84,.16,3.07,1.14,3.17,1.01,.04-.05-.2-.37-.74-.73-.53-.36-1.38-.72-2.37-.82-.99-.1-1.89,.09-2.49,.34-.6,.25-.9,.51-.87,.57Z" style="fill:#fff;"></path><path d="M64.61,444.26s.11-.32,.09-.92c-.02-.59-.13-1.47-.58-2.45-.23-.47-.47-1.06-1.13-1.43-.33-.18-.83-.15-1.14,.15-.31,.29-.42,.69-.45,1.07-.07,1.54,1.15,3.12,2.87,3.45,1.73,.3,3.37-.59,4.14-1.88,.17-.33,.3-.75,.14-1.17-.16-.43-.64-.62-.99-.58-.73,.06-1.21,.45-1.65,.73-.88,.62-1.44,1.29-1.78,1.78-.34,.49-.45,.8-.43,.81,.08,.07,.69-1.15,2.41-2.28,.43-.26,.93-.58,1.46-.6,.25,0,.47,.11,.54,.32,.08,.2,0,.5-.14,.77-.65,1.05-2.15,1.86-3.61,1.58-1.45-.27-2.53-1.65-2.48-2.89,.02-.3,.11-.59,.29-.76,.17-.16,.41-.2,.63-.09,.46,.22,.74,.75,.98,1.19,.91,1.85,.71,3.22,.82,3.2Z" style="fill:#fff;"></path></g><path d="M124.77,276.32s2.9,15.63,1.93,28.21c-.37,4.87-11.82,143.66-11.82,143.66l-29.11,.24,8.01-134.95-1.82,.39s-7.46,49.19-8.45,57.93c-.89,7.86-10.54,76.23-10.54,76.23l-24.63,.28,4.66-78.75,4.96-91.92,8.3-4.53,58.51,3.2Z" style="fill:#455a64;"></path><g><polygon points="64.95 183.28 77.69 178.98 101.05 180.05 111.73 185.15 95.14 219.07 84.22 217.48 64.95 183.28" style="fill:#ffbf9d;"></polygon><path d="M129.77,250.17c2.05,28.59,2.09,52.75,2.09,52.75l-79.04-.21,1.67-18.77c1.03-10.83,1.56-39.32,1.56-39.32,0,0-.9-56.7,.22-59.8,1.12-3.1,21.43-5.85,21.43-5.85l13.3,10.77,11.51-11.1s17.81,6.86,21.64,8.41l5.62,63.11Z" style="fill:#455a64;"></path><path d="M124.78,194.05s.05,.16,.1,.47c.05,.35,.12,.8,.2,1.34,.16,1.17,.38,2.86,.62,4.96,.49,4.19,1.08,9.99,1.6,16.41,.51,6.42,.86,12.24,1.08,16.45,.09,2.07,.17,3.76,.22,4.99,.01,.55,.03,1,.04,1.36,0,.31,0,.47-.02,.47-.01,0-.04-.16-.07-.47-.03-.35-.07-.8-.11-1.35-.09-1.23-.21-2.92-.35-4.98-.29-4.21-.69-10.02-1.2-16.44-.51-6.41-1.06-12.22-1.47-16.41-.2-2.06-.37-3.74-.49-4.97-.05-.55-.09-1-.12-1.35-.02-.31-.03-.47-.01-.48Z" style="fill:#263238;"></path><g><g><rect x="66.7" y="219.07" width="16.2" height="11.54" style="fill:#fff;"></rect><path d="M72.6,225.33c0,.98-.79,1.78-1.78,1.78s-1.78-.79-1.78-1.78,.79-1.78,1.78-1.78,1.78,.79,1.78,1.78Z" style="fill:#e0e0e0;"></path><rect x="73.93" y="224.61" width="6.62" height="1.14" rx=".45" ry=".45" style="fill:#e0e0e0;"></rect></g><polyline points="73.81 220.86 72.48 217.28 77.12 217.28 75.99 220.86 73.81 220.86" style="fill:#263238;"></polyline></g><path d="M102.63,215.31s-.05,.15-.18,.41c-.15,.3-.34,.67-.58,1.13-.5,.98-1.28,2.37-2.31,4.05-1.02,1.69-2.31,3.64-3.84,5.75-1.54,2.1-3.31,4.35-5.3,6.61-2,2.25-4.01,4.28-5.91,6.07-1.91,1.77-3.69,3.3-5.24,4.51-1.54,1.22-2.82,2.17-3.73,2.79-.42,.29-.77,.52-1.05,.71-.24,.16-.37,.24-.38,.22s.11-.11,.33-.29c.27-.21,.6-.46,1-.77,.88-.66,2.13-1.64,3.64-2.88,1.52-1.24,3.27-2.79,5.16-4.56,1.87-1.79,3.87-3.83,5.86-6.07,1.98-2.25,3.75-4.48,5.3-6.56,1.53-2.09,2.85-4.02,3.89-5.68,1.05-1.66,1.87-3.02,2.41-3.97,.26-.44,.47-.8,.64-1.09,.15-.25,.24-.37,.25-.37Z" style="fill:#263238;"></path></g><path d="M56.85,194.12c.14,0,0,8.55-.33,19.09-.33,10.54-.71,19.08-.85,19.08-.14,0,0-8.55,.33-19.09,.33-10.54,.71-19.08,.85-19.07Z" style="fill:#263238;"></path><path d="M20.66,234.49c2.81,5.55,16.04,3.07,24.29-2.63l16.91-10.29-.63-9.72c-5.27,1.83-26.63,5.81-36.86,9.51,0,0-8.08,5.85-3.71,13.13m2.78-.54l.03,.04-.03-.04Z" style="fill:#ffbf9d;"></path><g><path d="M127.93,152.91l1.16,1.11c.18,.18,.16,.47-.04,.62l-34.93,25.76-.03,.02-3.73,2.3c-.57,.35-1.19-.39-.74-.89l2.81-3.1s.04-.04,.06-.05l34.91-25.8c.16-.12,.38-.1,.53,.03Z" style="fill:#fafafa;"></path><path d="M127.93,152.91s-.05-.09-.23-.13c-.09-.02-.21,0-.32,.07-.11,.07-.23,.16-.36,.25-.56,.4-1.35,.97-2.36,1.71-2.06,1.51-5.01,3.66-8.66,6.33-3.65,2.69-7.99,5.88-12.81,9.42-2.41,1.78-4.94,3.64-7.56,5.57-.65,.48-1.32,.97-1.98,1.46-.33,.25-.67,.49-1,.74l-.25,.19c-.12,.1-.17,.17-.24,.25l-.42,.47c-.57,.62-1.13,1.25-1.71,1.88l-.43,.47c-.13,.12-.36,.42-.3,.7,.03,.28,.22,.53,.48,.64,.13,.05,.28,.07,.42,.04,.14-.03,.27-.11,.35-.16,.74-.45,1.47-.9,2.19-1.35,.36-.22,.72-.45,1.09-.67l.27-.17s.09-.05,.15-.09l.13-.09,.51-.38c1.35-1,2.69-1.98,4-2.95,2.62-1.94,5.15-3.8,7.55-5.58,4.81-3.56,9.13-6.77,12.78-9.47,3.62-2.7,6.55-4.88,8.59-6.41,.51-.38,.95-.71,1.35-1.02,.2-.2,.14-.54-.04-.67-.15-.14-.29-.27-.41-.38-.24-.22-.42-.38-.56-.51-.13-.11-.19-.17-.2-.17,0,0,.05,.07,.17,.19,.13,.13,.31,.31,.54,.54,.12,.12,.25,.25,.4,.39,.15,.12,.18,.38,.02,.53-.39,.29-.85,.62-1.35,.98-2.06,1.5-5.02,3.66-8.66,6.32-3.65,2.68-8,5.87-12.82,9.41-2.41,1.77-4.94,3.64-7.56,5.56-1.31,.97-2.65,1.95-4,2.95l-.51,.37-.13,.09s-.08,.05-.12,.08l-.27,.17c-.36,.22-.72,.44-1.09,.67-.73,.45-1.46,.9-2.19,1.35-.18,.12-.3,.14-.45,.09-.13-.06-.25-.2-.26-.35-.01-.16,.04-.25,.21-.42l.43-.47c.57-.63,1.14-1.26,1.71-1.88l.42-.47c.07-.07,.15-.17,.19-.2l.25-.19c.34-.25,.67-.5,1-.74,.67-.49,1.33-.98,1.98-1.47,2.62-1.94,5.14-3.81,7.54-5.59,4.8-3.57,9.13-6.78,12.76-9.48,3.61-2.7,6.54-4.89,8.59-6.42,1-.75,1.78-1.34,2.32-1.76,.27-.2,.45-.39,.63-.35,.17,.02,.23,.1,.23,.09Z" style="fill:#263238;"></path></g><g><g><g><path d="M87.01,185.03l-.81,12.95-8.49,18.8c-.5,1.1,.31,2.34,1.51,2.34h21.08c1.18,0,1.99-1.21,1.53-2.3l-7.98-19.11v-12.69h-6.84Z" style="fill:#e0e0e0;"></path><path d="M87.01,185.03s.16,.01,.47,.02c.32,0,.76,.01,1.33,.02,1.18,.01,2.87,.03,5.04,.05l-.09-.09c-.01,3.22-.03,7.55-.05,12.69v.05c1.64,3.92,3.5,8.4,5.52,13.25,.51,1.21,1.02,2.45,1.55,3.71,.26,.63,.53,1.27,.79,1.91,.15,.33,.24,.6,.21,.93-.02,.31-.15,.61-.35,.86-.21,.23-.49,.42-.8,.48-.3,.06-.67,.03-1.03,.04-.71,0-1.43,0-2.16,0h-4.39c-3.77,0-7.44,0-10.98,0-.88,0-1.76,0-2.62,0-.44,.02-.8-.05-1.12-.29-.3-.23-.52-.58-.58-.95-.07-.39,.04-.73,.23-1.12,.17-.38,.34-.76,.51-1.14,.34-.75,.67-1.49,1-2.22,2.62-5.85,4.94-11.02,6.82-15.2v-.04c.24-4.03,.42-7.25,.54-9.49,.06-1.1,.1-1.96,.13-2.57,.01-.28,.02-.5,.03-.67,0-.15,0-.23,0-.24,0,0-.01,.07-.03,.21-.01,.16-.03,.38-.05,.65-.04,.6-.11,1.45-.19,2.54-.16,2.25-.38,5.49-.66,9.55v-.04c-1.89,4.17-4.23,9.33-6.88,15.17-.33,.73-.67,1.47-1.01,2.22-.17,.38-.34,.75-.51,1.13-.18,.35-.35,.85-.25,1.31,.07,.46,.34,.89,.71,1.17,.19,.14,.41,.24,.64,.3,.23,.06,.48,.06,.68,.06,.86,0,1.74,0,2.62,0,3.53,0,7.21,0,10.98,0h6.55c.36-.01,.7,.03,1.1-.05,.39-.08,.73-.31,.99-.6,.25-.3,.41-.67,.43-1.06,.04-.38-.1-.79-.24-1.09-.27-.64-.53-1.28-.8-1.9-.53-1.26-1.05-2.5-1.56-3.71-2.04-4.85-3.91-9.32-5.56-13.23v.05c0-5.14-.03-9.47-.04-12.69v-.09h-.09c-2.19,.02-3.9,.04-5.09,.05-.56,0-1,.02-1.31,.02-.29,0-.44,.02-.44,.02Z" style="fill:#263238;"></path></g><g><rect x="85.73" y="184.35" width="9.48" height="2.35" rx="1.14" ry="1.14" style="fill:#e0e0e0;"></rect><path d="M94.08,186.7s.35,.12,.82-.26c.22-.18,.42-.53,.41-.95,.02-.42-.22-.94-.73-1.17-.25-.13-.55-.12-.81-.12-.27,0-.55,0-.84-.01-.58,0-1.2-.01-1.84-.02-1.31,0-2.73,0-4.23-.01-.44,0-.85,.23-1.09,.58-.12,.18-.19,.38-.21,.58-.02,.21-.01,.39,.04,.6,.11,.39,.42,.71,.78,.85,.18,.07,.39,.09,.56,.09,.17,0,.33,0,.49,0,1.28-.01,2.44-.03,3.45-.04,.93-.02,1.7-.04,2.33-.06,.55-.02,.85-.04,.85-.07s-.3-.05-.85-.07c-.62-.02-1.4-.03-2.33-.06-1.01-.01-2.17-.02-3.45-.04-.33-.02-.67,.04-.93-.07-.27-.1-.49-.34-.57-.63-.07-.28-.05-.64,.13-.89,.17-.26,.48-.42,.8-.42,1.49,0,2.92,0,4.23-.01,.65,0,1.26-.01,1.84-.02,.29,0,.57,0,.84-.01,.28,0,.5-.02,.71,.07,.41,.17,.63,.58,.63,.94,.03,.37-.13,.67-.31,.85-.38,.37-.74,.32-.73,.36Z" style="fill:#263238;"></path></g><path d="M83.78,206.4c-.07,.14-2.58,6.28-3.92,9.56-.39,.96,.32,2.01,1.35,2.01h17.52c1.03,0,1.74-1.04,1.36-2l-3.8-9.57h-12.51Z" style="fill:#D62828;"></path></g><g><path d="M72.32,204.88c.41-.49,3.82-2.14,3.82-2.14l8.43-6.21,5.62,.21,3.72,2.96s-1.57,2.4-3.46,1.29-1.06-.74-1.06-.74l-3.21,.28-3.53,3.32,5.32,2.09,5.87,5.95s-1.49,1.53-3.27,1.02c-1.58-.46-3.81-3.1-3.81-3.1l-3.49-1.1,6.3,7.19c.43,.5,.38,1.29-.17,1.66-.53,.35-1.13,.43-1.78,.27l1.14,1.49-1.26,.34c-.94,.25-1.95,.11-2.78-.4l-6.93-4.27s-7.54,5.55-11.44,6.03c-3.91,.49-4.58,.18-4.58,.18l-2.82-8.29,13.35-8.03Z" style="fill:#ffbf9d;"></path><path d="M75,211.3s.19-.17,.55-.41c.36-.24,.96-.5,1.74-.56,.78-.07,1.71,.08,2.63,.56,.93,.46,1.82,1.2,2.69,2.03,1.76,1.67,3.21,3.33,4.27,4.52,.49,.55,.91,1.02,1.26,1.41,.3,.33,.48,.51,.49,.49,.02-.01-.12-.22-.4-.57-.27-.35-.67-.86-1.18-1.48-1.02-1.23-2.45-2.92-4.22-4.61-.88-.84-1.81-1.6-2.79-2.06-.97-.48-1.98-.62-2.79-.52-.82,.1-1.43,.41-1.79,.69-.36,.28-.49,.5-.48,.51Z" style="fill:#ff9a6c;"></path><path d="M76.41,206c0,.11,1.89-.14,3.97,.77,2.1,.87,3.23,2.41,3.31,2.33,.03-.02-.2-.43-.73-.98-.52-.55-1.37-1.2-2.45-1.66-1.07-.46-2.13-.62-2.89-.62-.76,0-1.22,.11-1.21,.15Z" style="fill:#ff9a6c;"></path><path d="M77.59,203.87c.05,.09,1.1-.6,2.57-.56,1.48,0,2.51,.72,2.56,.63,.02-.03-.2-.26-.64-.5-.44-.24-1.13-.46-1.91-.47-.78,0-1.47,.19-1.92,.41-.45,.22-.68,.45-.66,.48Z" style="fill:#ff9a6c;"></path></g></g><path d="M134.66,231.99l-12.84-44.72,9.85-6.22,18.38,33.2s3.21,6.7,4.24,11.12c1.83,7.85,.35,13.33-3.33,16.64-1.77,1.6-4.33,2.04-6.57,1.22-3.19-1.18-7.68-4.08-9.74-11.24Z" style="fill:#ffbf9d;"></path><path d="M25.97,220.86c-.04-.14,6.53-1.97,14.66-4.08,8.13-2.12,14.76-3.72,14.79-3.58,.04,.14-6.53,1.97-14.66,4.08-8.13,2.12-14.76,3.72-14.79,3.58Z" style="fill:#263238;"></path><g><path d="M109.17,165.01c-.93-.38-.92-1.71,0-2.11,2.69-1.18,8.48-3.58,10.09-3.13,2.13,.6,10.52,1.86,11.23,3.29,.71,1.43,.88,8.25,.88,8.25l.17,10.89-9,7.19s-2.29-2.66-2.54-6.06c-.34-4.58,.07-5.54,.07-5.54l-2.74-3.2s2.77,3.45,.35,4.42c0,0-3.26-2.74-3.69-3.83s-.03-2.8-.03-2.8c0,0-1.58-1.31-.38-2.76,0,0-1.68-.53-.68-2.33,1-1.8,2.94-2.57,2.94-2.57l1.84-1.16s-6.37,2.33-8.52,1.46Z" style="fill:#ffbf9d;"></path><path d="M123.04,173.08s-.39-.42-1.13-.95c-.73-.51-1.86-1.24-3.31-1.35-1.43-.12-2.7,.35-3.47,.86-.78,.51-1.11,1-1.08,1.02,.04,.04,.43-.37,1.21-.8,.77-.43,1.97-.83,3.31-.72,1.34,.1,2.44,.75,3.2,1.21,.76,.47,1.23,.78,1.27,.74Z" style="fill:#ff9a6c;"></path><path d="M124.03,169.41s-.05-.18-.21-.45c-.17-.27-.45-.65-.87-1.04-.82-.79-2.32-1.64-4.12-1.63-1.8,.02-3.29,.88-4.11,1.68-.42,.4-.7,.78-.86,1.05-.16,.28-.23,.44-.21,.45,.06,.04,.39-.59,1.24-1.32,.82-.72,2.25-1.49,3.94-1.51,1.69,0,3.12,.75,3.95,1.46,.85,.72,1.2,1.34,1.25,1.31Z" style="fill:#ff9a6c;"></path><path d="M126.69,165.67c.02-.05-.63-.32-1.57-.95-.47-.31-1.03-.69-1.68-1.09-.65-.39-1.41-.78-2.3-.95-.89-.16-1.77-.03-2.49,.24-.73,.26-1.31,.63-1.78,.96-.93,.68-1.4,1.21-1.38,1.24,.04,.05,.57-.42,1.52-1.03,.48-.3,1.06-.63,1.75-.86,.69-.24,1.5-.35,2.32-.2,.82,.15,1.55,.52,2.2,.88,.62,.37,1.19,.71,1.71,1.02,.99,.58,1.69,.77,1.7,.73Z" style="fill:#ff9a6c;"></path></g><path d="M131.54,182.19s-.02-.08-.03-.24c0-.19-.02-.43-.04-.72-.02-.68-.05-1.6-.09-2.77-.03-1.22-.07-2.68-.11-4.38-.04-1.71-.06-3.65-.22-5.79-.08-1.07-.17-2.19-.33-3.34-.09-.57-.18-1.17-.38-1.69-.17-.45-.83-.68-1.38-.91-2.34-.86-5.02-1.32-7.8-1.9-.69-.14-1.42-.31-2.1-.46-.63-.08-1.37,.09-2.07,.26-1.42,.37-2.85,.89-4.28,1.45-.72,.28-1.44,.57-2.16,.88l-1.08,.47c-.38,.14-.59,.31-.69,.63-.1,.3-.03,.65,.17,.87,.19,.22,.56,.31,.94,.35,.76,.08,1.56-.01,2.36-.14,1.84-.32,3.64-.86,5.36-1.46l2.15-.75-1.93,1.21c-.62,.39-1.23,.77-1.84,1.16h-.01l-.03,.02c-1,.45-1.93,1.17-2.55,2.05-.31,.44-.56,.93-.55,1.39,0,.45,.4,.83,.82,.99l.34,.12-.22,.27c-.3,.37-.46,.82-.36,1.25,.09,.43,.38,.86,.71,1.16l.11,.1-.03,.14c-.14,.67-.21,1.39-.14,2.04,.04,.33,.12,.63,.3,.89,.17,.27,.4,.53,.62,.78,.91,.99,1.89,1.88,2.85,2.71l-.22-.04c.38-.17,.69-.43,.79-.8,.11-.36,.05-.78-.06-1.17-.25-.78-.69-1.5-1.16-2.13l.3-.25c.97,1.15,1.88,2.22,2.72,3.21l.06,.07-.03,.11c-.21,.84-.2,1.8-.21,2.64,0,.85,.04,1.66,.08,2.41,.05,1.5,.44,2.73,.84,3.69,.41,.96,.83,1.65,1.13,2.11,.3,.46,.47,.68,.46,.69,0,0-.06-.04-.15-.15-.09-.11-.22-.27-.39-.49-.32-.44-.78-1.13-1.22-2.09-.43-.96-.87-2.22-.94-3.74-.06-.75-.11-1.56-.12-2.42,0-.87-.05-1.75,.2-2.78l.03,.18c-.85-.99-1.77-2.04-2.76-3.18l.3-.25c.51,.66,.96,1.39,1.25,2.25,.13,.43,.21,.92,.07,1.42-.14,.51-.58,.88-1.04,1.08l-.12,.05-.1-.09c-.98-.83-1.97-1.71-2.91-2.73-.23-.26-.46-.52-.67-.84-.22-.32-.33-.71-.37-1.08-.09-.74-.01-1.47,.14-2.21l.08,.24c-.42-.38-.75-.84-.88-1.43-.14-.59,.09-1.23,.46-1.67l.12,.39c-.59-.2-1.14-.73-1.17-1.43-.02-.67,.3-1.23,.63-1.71,.69-.98,1.65-1.73,2.77-2.24l-.04,.02c.61-.38,1.22-.77,1.84-1.16l.23,.46c-1.75,.61-3.55,1.16-5.45,1.49-.82,.13-1.65,.24-2.51,.14-.41-.05-.9-.14-1.26-.52-.34-.38-.43-.92-.28-1.38,.07-.23,.21-.45,.39-.61,.18-.17,.42-.27,.59-.34l1.09-.47c.73-.31,1.45-.6,2.17-.88,1.45-.56,2.88-1.08,4.34-1.46,.74-.17,1.46-.37,2.28-.26,.74,.17,1.4,.33,2.11,.47,2.78,.6,5.45,1.07,7.86,1.97,.3,.11,.59,.26,.88,.41l.41,.29c.11,.14,.28,.29,.31,.45,.23,.62,.31,1.21,.39,1.8,.15,1.17,.23,2.3,.3,3.38,.13,2.15,.13,4.1,.14,5.81,0,1.7,.02,3.16,.03,4.38,0,1.17,0,2.09,0,2.77,0,.29-.01,.53-.01,.72,0,.16-.01,.25-.02,.25Z" style="fill:#ff9a6c;"></path><path d="M132.15,302.57c0,.14-17.62,.26-39.35,.26s-39.36-.12-39.36-.26,17.62-.26,39.36-.26,39.35,.12,39.35,.26Z" style="fill:#263238;"></path></g></g></svg>
